<svg version="1.1" id="Layer_1" xmlns="http://www.w3.org/2000/svg" xmlns:xlink="http://www.w3.org/1999/xlink" x="0px" y="0px"
	 width="100%" viewBox="0 0 300 65" enable-background="new 0 0 300 65" xml:space="preserve">
<path fill="#000100" opacity="1.000000" stroke="none" 
	d="
M301.000000,44.000000 
	C301.000000,51.322407 301.000000,58.644817 301.000000,66.000000 
	C210.645767,66.000000 120.291542,66.000000 29.521042,65.660797 
	C29.734907,64.805779 30.317844,64.214760 31.002163,63.785263 
	C44.247536,55.472267 46.516163,43.894032 37.717453,30.789492 
	C36.898537,29.569824 37.215778,27.114799 37.787930,25.512821 
	C40.775223,17.148663 38.659409,9.660430 31.619869,4.220428 
	C30.553713,3.396528 29.863895,2.085634 29.000000,1.000000 
	C119.666679,1.000000 210.333359,1.000000 301.000000,1.000000 
	C301.000000,8.083311 301.000000,15.072873 300.585327,22.614655 
	C291.689911,20.693949 292.909729,29.897648 288.747803,33.407356 
	C287.317108,30.220978 286.431702,27.487152 284.903290,25.179138 
	C284.181641,24.089386 282.212891,23.299667 280.836334,23.338442 
	C279.766083,23.368591 277.886658,24.842020 277.832153,25.760870 
	C277.527557,30.897343 277.549591,36.065479 277.775482,41.208939 
	C277.812805,42.059551 279.408264,42.841740 280.283661,43.655548 
	C281.002777,42.850952 282.146393,42.142254 282.354218,41.222168 
	C282.812347,39.194069 282.798492,37.059353 283.103394,33.491917 
	C285.394501,37.807026 287.007843,40.845695 289.351288,45.259407 
	C291.685333,40.243084 293.356903,36.650551 295.028473,33.058018 
	C296.008240,35.054882 296.152283,36.843311 295.978546,38.600319 
	C295.604492,42.383160 297.051056,44.314625 301.000000,44.000000 
M69.895149,29.806229 
	C69.642830,30.810564 69.390518,31.814899 68.873314,33.873619 
	C66.139862,30.363556 64.195709,27.493948 61.837257,25.019148 
	C60.871609,24.005850 58.997265,23.424791 57.562286,23.470097 
	C56.811798,23.493790 55.543678,25.273592 55.496025,26.305828 
	C55.274422,31.105738 55.244339,35.930397 55.520195,40.724651 
	C55.579090,41.748180 57.197449,42.681984 58.097374,43.657124 
	C58.842255,42.701351 59.969646,41.845249 60.250225,40.768490 
	C60.789375,38.699425 60.848621,36.505302 61.273464,32.981857 
	C64.383461,36.910286 66.378830,39.740807 68.704414,42.267380 
	C70.472084,44.187824 73.461823,45.078976 73.928421,41.764732 
	C74.683136,36.404011 74.222282,30.861425 74.089172,25.400162 
	C74.072723,24.725214 72.921822,24.077917 72.296616,23.417807 
	C71.548859,24.135162 70.484238,24.726658 70.136246,25.602797 
	C69.731743,26.621191 69.955345,27.889067 69.895149,29.806229 
M233.575165,27.987597 
	C233.598587,32.149342 233.454880,36.323372 233.759354,40.464455 
	C233.838486,41.540913 235.317398,42.514458 236.153381,43.535275 
	C236.778381,42.510075 237.768845,41.545940 237.952469,40.446995 
	C238.337265,38.143841 238.297409,35.769733 238.431931,33.424767 
	C241.873337,36.219398 244.061111,39.331097 246.595322,42.129013 
	C247.439911,43.061481 249.367462,43.828072 250.440720,43.498970 
	C251.426270,43.196774 252.479111,41.347656 252.544952,40.128384 
	C252.786880,35.647335 252.786865,31.135349 252.516403,26.656832 
	C252.447113,25.509766 251.049805,24.442902 250.262619,23.339199 
	C249.367950,24.502462 248.157578,25.546286 247.660583,26.859991 
	C247.073303,28.412268 247.102341,30.197712 246.645523,33.428909 
	C243.836426,29.900772 242.176483,27.467152 240.140823,25.404291 
	C239.101120,24.350708 237.243973,23.248318 236.023560,23.494257 
	C235.013672,23.697771 234.396011,25.847601 233.575165,27.987597 
M255.269119,40.354870 
	C254.144089,45.070229 257.412415,44.564079 259.334015,42.991020 
	C263.389099,39.671471 266.806702,39.553188 270.723938,42.941387 
	C271.518646,43.628750 273.158112,43.339420 274.408142,43.500351 
	C274.536316,42.298759 275.083588,40.949039 274.720306,39.921146 
	C273.122681,35.400650 271.468048,30.873348 269.382660,26.567101 
	C268.673431,25.102526 266.549561,23.294348 265.232635,23.413748 
	C263.595581,23.562172 261.485870,25.228802 260.706390,26.798820 
	C258.654388,30.931900 257.211853,35.367584 255.269119,40.354870 
M89.758133,23.116478 
	C77.292198,23.087873 78.260918,21.818737 78.231583,34.111279 
	C78.207016,44.406879 78.230148,44.406796 88.483551,43.899517 
	C88.816162,43.883057 89.199234,43.978786 89.473259,43.845886 
	C90.561096,43.318279 91.614914,42.720562 92.681343,42.148827 
	C91.616440,41.416702 90.635315,40.463650 89.461578,40.018497 
	C88.419212,39.623177 87.116730,39.956894 86.018700,39.649063 
	C85.356575,39.463444 84.332779,38.564045 84.409637,38.166969 
	C84.565666,37.360851 85.210365,36.400173 85.927910,36.017567 
	C86.748665,35.579926 87.963654,35.917969 88.835205,35.531128 
	C90.298111,34.881813 91.624832,33.925682 93.008850,33.098644 
	C91.568550,32.400505 90.131561,31.695448 88.687027,31.006178 
	C87.233818,30.312767 85.773117,29.635063 84.315697,28.950476 
	C85.838570,28.329016 87.348656,27.672562 88.892342,27.108017 
	C89.339241,26.944580 89.977592,27.210798 90.362434,26.990505 
	C91.233978,26.491615 92.002350,25.812481 92.812675,25.206642 
	C92.059372,24.525440 91.306068,23.844240 89.758133,23.116478 
M161.151794,32.368076 
	C158.521866,31.321327 155.891937,30.274578 153.262009,29.227829 
	C153.417587,28.598038 153.573151,27.968246 153.728714,27.338455 
	C155.613464,27.600925 157.505234,28.098061 159.380417,28.041859 
	C160.593674,28.005495 161.782700,27.159735 162.982574,26.676666 
	C162.306381,25.696579 161.809799,24.124138 160.918381,23.853846 
	C158.743546,23.194397 156.377762,22.844067 154.103622,22.906487 
	C150.542404,23.004232 147.456772,25.129444 147.707047,28.529608 
	C147.874161,30.800138 150.570663,33.191353 152.644730,34.915657 
	C154.246841,36.247593 156.640213,36.627766 158.681808,37.431087 
	C158.550278,38.116749 158.418762,38.802414 158.287247,39.488075 
	C156.001038,39.212082 153.718521,38.776928 151.427155,38.723927 
	C150.189713,38.695305 148.937164,39.319939 147.691422,39.649864 
	C148.356323,40.770836 148.816406,42.619804 149.724808,42.875389 
	C152.381119,43.622765 155.334229,44.375214 157.944046,43.894192 
	C160.049484,43.506138 162.901886,41.660931 163.458496,39.856285 
	C164.072708,37.864895 162.446762,35.182571 161.151794,32.368076 
M114.045509,25.035717 
	C112.346664,21.304222 110.296272,23.187357 108.474472,24.811695 
	C107.298592,25.860132 106.424568,27.247128 105.408051,28.491232 
	C99.185272,23.051197 99.185272,23.051197 96.143723,24.248495 
	C97.693771,27.439409 100.546448,30.680807 100.425285,33.806950 
	C100.305580,36.895569 97.180382,39.867710 95.330811,42.962605 
	C101.179939,45.772549 101.833267,39.617985 105.296455,38.288731 
	C108.406929,39.462780 109.040520,46.210758 114.795883,42.689663 
	C114.017456,41.350273 113.488503,39.919350 112.530777,38.885715 
	C109.059288,35.139069 108.459297,31.511158 112.424477,27.725554 
	C113.007462,27.168962 113.331497,26.341129 114.045509,25.035717 
M211.567734,42.354065 
	C210.739594,38.089348 207.193253,40.824291 205.118805,39.812725 
	C204.097733,39.314827 203.272324,38.415680 202.358383,37.698105 
	C203.193314,37.040840 203.936417,36.161644 204.881485,35.770615 
	C207.132706,34.839161 209.479355,34.138351 211.787445,33.344376 
	C209.394577,32.530350 206.957916,31.821087 204.631302,30.848551 
	C203.752838,30.481352 203.128815,29.505512 202.388794,28.807119 
	C203.124588,28.270323 203.799759,27.419090 204.608978,27.263060 
	C206.227371,26.951010 207.954498,27.190144 209.565231,26.856539 
	C210.326370,26.698898 210.922653,25.745300 211.593628,25.152344 
	C210.948212,24.521345 210.408981,23.551983 209.641174,23.311058 
	C200.790466,20.533901 196.717346,23.488943 196.725052,32.592888 
	C196.727295,35.255733 196.486191,37.975311 196.964111,40.556412 
	C197.189316,41.772713 198.815826,43.594700 199.867828,43.636940 
	C203.617294,43.787506 207.392731,43.291992 211.567734,42.354065 
M171.096786,25.441074 
	C169.545303,24.594126 167.993835,23.747177 166.442352,22.900230 
	C165.996704,23.361267 165.551056,23.822304 165.105408,24.283342 
	C167.458603,30.231129 169.526260,36.324409 172.417358,41.998096 
	C172.964340,43.071526 178.430756,43.309540 178.827957,42.521717 
	C181.820602,36.585857 184.112976,30.296955 186.624176,24.118370 
	C186.008499,23.762169 185.392822,23.405968 184.777145,23.049767 
	C177.505569,23.658152 180.176102,32.701168 175.146439,35.924976 
	C173.862167,32.559681 172.635605,29.345627 171.096786,25.441074 
M127.179253,40.061787 
	C127.198502,38.073555 127.202377,36.085033 127.240494,34.097164 
	C127.302551,30.859674 126.505539,27.148275 131.527374,26.695822 
	C131.962021,26.656662 132.764847,25.193155 132.581573,24.898876 
	C132.133377,24.179190 131.227066,23.322304 130.470642,23.288319 
	C126.669327,23.117523 122.853493,23.105625 119.051353,23.255665 
	C118.290199,23.285702 117.358292,24.135984 116.918869,24.859385 
	C116.718628,25.189039 117.474777,26.674063 117.882812,26.711939 
	C123.319359,27.216597 121.964317,31.321901 122.142555,34.576748 
	C122.251167,36.560249 121.991730,38.591972 122.336929,40.523529 
	C122.532448,41.617569 123.615753,42.552952 124.299194,43.559792 
	C125.237907,42.683010 126.176620,41.806229 127.179253,40.061787 
M225.071945,39.147995 
	C225.077362,38.154408 224.982224,37.148102 225.106049,36.169498 
	C225.571548,32.490593 223.104538,27.376081 229.720047,26.601322 
	C230.077957,26.559408 230.711838,25.337194 230.554794,25.096292 
	C230.078262,24.365345 229.294846,23.352905 228.597733,23.326479 
	C224.468735,23.169968 220.326767,23.178076 216.198685,23.353977 
	C215.535812,23.382223 214.719467,24.444103 214.385315,25.208042 
	C214.256546,25.502438 215.254501,26.770531 215.772369,26.791977 
	C220.549728,26.989832 220.076462,30.384504 220.068039,33.546879 
	C220.062302,35.699528 219.801620,37.909924 220.212387,39.984097 
	C220.473267,41.301342 221.756393,42.416142 222.581085,43.621723 
	C223.403702,42.425449 224.226318,41.229176 225.071945,39.147995 
M139.851974,27.790798 
	C139.844101,28.951725 139.914322,30.119431 139.814209,31.272348 
	C139.467789,35.261585 141.143539,40.811710 133.587524,39.402252 
	C133.131866,39.317249 131.798584,40.861607 131.929901,41.380550 
	C132.163803,42.304981 133.049652,43.383923 133.936356,43.769821 
	C138.389130,45.707722 143.339188,43.211861 144.153397,38.360886 
	C144.778473,34.636719 144.883789,30.782038 144.760910,27.000330 
	C144.720795,25.765560 143.234146,24.577789 142.409058,23.368521 
	C141.565887,24.550858 140.722702,25.733192 139.851974,27.790798 
M193.115799,27.858219 
	C192.258102,26.365080 191.400391,24.871941 190.542709,23.378803 
	C189.732132,24.931307 188.380417,26.430552 188.221313,28.047163 
	C187.867599,31.641174 187.869476,35.317516 188.220108,38.912140 
	C188.378693,40.537891 189.714508,42.048813 190.516235,43.611828 
	C191.384659,41.965618 192.790939,40.386257 193.005646,38.658798 
	C193.409439,35.409801 193.125412,32.075314 193.115799,27.858219 
z"/>
<path fill="#026A00" opacity="1.000000" stroke="none" 
	d="
M28.535349,1.000000 
	C29.863895,2.085634 30.553713,3.396528 31.619869,4.220428 
	C38.659409,9.660430 40.775223,17.148663 37.787930,25.512821 
	C37.215778,27.114799 36.898537,29.569824 37.717453,30.789492 
	C46.516163,43.894032 44.247536,55.472267 31.002163,63.785263 
	C30.317844,64.214760 29.734907,64.805779 29.052385,65.660797 
	C24.310745,66.000000 19.621489,66.000000 14.468197,65.650452 
	C9.669439,61.200600 5.334720,57.100300 1.000000,53.000000 
	C1.000000,47.645069 1.000000,42.290142 1.353004,36.474007 
	C5.519927,32.514080 7.761199,29.125999 5.460498,23.230938 
	C2.553912,15.783421 5.791195,9.395371 11.851982,4.420057 
	C13.037959,3.446486 13.957547,2.148408 15.000000,1.000000 
	C19.356899,1.000000 23.713799,1.000000 28.535349,1.000000 
M9.014018,19.320429 
	C9.856812,21.521084 10.699605,23.721739 11.542398,25.922394 
	C12.181572,25.689608 12.820745,25.456823 13.459919,25.224037 
	C13.085003,23.592379 12.070954,21.784016 12.463414,20.364519 
	C13.382812,17.039127 14.155100,12.837152 16.537247,10.997144 
	C18.733416,9.300790 23.212055,9.333892 26.212643,10.214963 
	C29.956301,11.314225 31.476887,14.981361 31.259367,19.072977 
	C30.969599,24.523596 28.084372,27.180740 21.337580,28.066908 
	C7.465837,29.888910 0.695082,43.133957 8.069117,54.022858 
	C12.879076,61.125507 22.220249,63.451237 29.688076,59.405457 
	C37.397877,55.228577 40.758453,45.740002 37.001591,37.942310 
	C36.060947,35.989918 34.107903,34.525299 32.620148,32.836502 
	C32.161949,33.229572 31.703753,33.622639 31.245554,34.015709 
	C32.122761,35.550018 33.076427,37.046253 33.863045,38.625679 
	C36.364059,43.647427 35.415653,50.045742 31.653381,53.982647 
	C28.036728,57.767174 21.769789,59.123638 16.880083,57.180290 
	C11.592299,55.078732 8.449698,50.119965 8.643053,44.182945 
	C8.882010,36.845711 13.081136,32.976650 22.494591,31.420174 
	C30.001270,30.178976 35.221382,24.550606 34.863834,18.083559 
	C34.501163,11.523837 28.629335,5.729883 22.157804,5.546046 
	C15.279585,5.350656 9.886554,10.661076 9.014018,19.320429 
M16.983479,37.223255 
	C13.127934,39.998371 11.856605,43.672630 13.592580,48.096481 
	C15.069880,51.861141 18.074764,53.879395 22.109575,53.769756 
	C26.159294,53.659721 29.463964,51.437737 30.161320,47.595745 
	C30.654678,44.877666 29.933359,41.280090 28.388405,39.001045 
	C25.889997,35.315502 21.770252,35.039867 16.983479,37.223255 
M20.262341,23.289408 
	C25.357218,23.409424 28.371836,20.465149 26.551462,16.793465 
	C25.803343,15.284509 23.610430,13.512511 22.158567,13.583168 
	C20.399015,13.668800 17.502352,15.402233 17.310581,16.739899 
	C17.033222,18.674562 18.742605,20.894051 20.262341,23.289408 
z"/>
<path fill="#026B00" opacity="1.000000" stroke="none" 
	d="
M301.000000,43.531467 
	C297.051056,44.314625 295.604492,42.383160 295.978546,38.600319 
	C296.152283,36.843311 296.008240,35.054882 295.028473,33.058018 
	C293.356903,36.650551 291.685333,40.243084 289.351288,45.259407 
	C287.007843,40.845695 285.394501,37.807026 283.103394,33.491917 
	C282.798492,37.059353 282.812347,39.194069 282.354218,41.222168 
	C282.146393,42.142254 281.002777,42.850952 280.283661,43.655548 
	C279.408264,42.841740 277.812805,42.059551 277.775482,41.208939 
	C277.549591,36.065479 277.527557,30.897343 277.832153,25.760870 
	C277.886658,24.842020 279.766083,23.368591 280.836334,23.338442 
	C282.212891,23.299667 284.181641,24.089386 284.903290,25.179138 
	C286.431702,27.487152 287.317108,30.220978 288.747803,33.407356 
	C292.909729,29.897648 291.689911,20.693949 300.585327,23.083439 
	C301.000000,29.687645 301.000000,36.375290 301.000000,43.531467 
z"/>
<path fill="#000300" opacity="1.000000" stroke="none" 
	d="
M14.525872,1.000000 
	C13.957547,2.148408 13.037959,3.446486 11.851982,4.420057 
	C5.791195,9.395371 2.553912,15.783421 5.460498,23.230938 
	C7.761199,29.125999 5.519927,32.514080 1.353004,36.006401 
	C1.000000,24.441162 1.000000,12.882323 1.000000,1.000000 
	C5.345237,1.000000 9.698491,1.000000 14.525872,1.000000 
z"/>
<path fill="#000400" opacity="1.000000" stroke="none" 
	d="
M1.000000,53.476662 
	C5.334720,57.100300 9.669439,61.200600 14.002079,65.650452 
	C9.743702,66.000000 5.487404,66.000000 1.000000,66.000000 
	C1.000000,61.986248 1.000000,57.969788 1.000000,53.476662 
z"/>
<path fill="#026A00" opacity="1.000000" stroke="none" 
	d="
M69.900742,29.427446 
	C69.955345,27.889067 69.731743,26.621191 70.136246,25.602797 
	C70.484238,24.726658 71.548859,24.135162 72.296616,23.417809 
	C72.921822,24.077917 74.072723,24.725214 74.089172,25.400162 
	C74.222282,30.861425 74.683136,36.404011 73.928421,41.764732 
	C73.461823,45.078976 70.472084,44.187824 68.704414,42.267380 
	C66.378830,39.740807 64.383461,36.910286 61.273464,32.981857 
	C60.848621,36.505302 60.789375,38.699425 60.250225,40.768490 
	C59.969646,41.845249 58.842255,42.701351 58.097374,43.657124 
	C57.197449,42.681984 55.579090,41.748180 55.520195,40.724651 
	C55.244339,35.930397 55.274422,31.105738 55.496025,26.305828 
	C55.543678,25.273592 56.811798,23.493790 57.562286,23.470097 
	C58.997265,23.424791 60.871609,24.005850 61.837257,25.019148 
	C64.195709,27.493948 66.139862,30.363556 68.873314,33.873619 
	C69.390518,31.814899 69.642830,30.810564 69.900742,29.427446 
z"/>
<path fill="#026900" opacity="1.000000" stroke="none" 
	d="
M233.589874,27.561340 
	C234.396011,25.847601 235.013672,23.697771 236.023560,23.494257 
	C237.243973,23.248318 239.101120,24.350708 240.140823,25.404291 
	C242.176483,27.467152 243.836426,29.900772 246.645523,33.428909 
	C247.102341,30.197712 247.073303,28.412268 247.660583,26.859991 
	C248.157578,25.546286 249.367950,24.502462 250.262619,23.339195 
	C251.049805,24.442902 252.447113,25.509766 252.516403,26.656832 
	C252.786865,31.135349 252.786880,35.647335 252.544952,40.128384 
	C252.479111,41.347656 251.426270,43.196774 250.440720,43.498970 
	C249.367462,43.828072 247.439911,43.061481 246.595322,42.129013 
	C244.061111,39.331097 241.873337,36.219398 238.431931,33.424767 
	C238.297409,35.769733 238.337265,38.143841 237.952469,40.446995 
	C237.768845,41.545940 236.778381,42.510075 236.153381,43.535275 
	C235.317398,42.514458 233.838486,41.540913 233.759354,40.464455 
	C233.454880,36.323372 233.598587,32.149342 233.589874,27.561340 
z"/>
<path fill="#026900" opacity="1.000000" stroke="none" 
	d="
M255.397842,40.018810 
	C257.211853,35.367584 258.654388,30.931900 260.706390,26.798820 
	C261.485870,25.228802 263.595581,23.562172 265.232635,23.413748 
	C266.549561,23.294348 268.673431,25.102526 269.382660,26.567101 
	C271.468048,30.873348 273.122681,35.400650 274.720306,39.921146 
	C275.083588,40.949039 274.536316,42.298759 274.408142,43.500351 
	C273.158112,43.339420 271.518646,43.628750 270.723938,42.941387 
	C266.806702,39.553188 263.389099,39.671471 259.334015,42.991020 
	C257.412415,44.564079 254.144089,45.070229 255.397842,40.018810 
z"/>
<path fill="#026900" opacity="1.000000" stroke="none" 
	d="
M90.155449,23.139759 
	C91.306068,23.844240 92.059372,24.525440 92.812675,25.206642 
	C92.002350,25.812481 91.233978,26.491615 90.362434,26.990505 
	C89.977592,27.210798 89.339241,26.944580 88.892342,27.108017 
	C87.348656,27.672562 85.838570,28.329016 84.315697,28.950478 
	C85.773117,29.635063 87.233818,30.312767 88.687027,31.006178 
	C90.131561,31.695448 91.568550,32.400505 93.008850,33.098648 
	C91.624832,33.925682 90.298111,34.881813 88.835205,35.531128 
	C87.963654,35.917969 86.748665,35.579926 85.927910,36.017567 
	C85.210365,36.400173 84.565666,37.360851 84.409637,38.166969 
	C84.332779,38.564045 85.356575,39.463444 86.018700,39.649063 
	C87.116730,39.956894 88.419212,39.623177 89.461578,40.018497 
	C90.635315,40.463650 91.616440,41.416702 92.681343,42.148827 
	C91.614914,42.720562 90.561096,43.318279 89.473259,43.845886 
	C89.199234,43.978786 88.816162,43.883057 88.483551,43.899517 
	C78.230148,44.406796 78.207016,44.406879 78.231583,34.111279 
	C78.260918,21.818737 77.292198,23.087873 90.155449,23.139759 
z"/>
<path fill="#026A00" opacity="1.000000" stroke="none" 
	d="
M161.474182,32.584641 
	C162.446762,35.182571 164.072708,37.864895 163.458496,39.856285 
	C162.901886,41.660931 160.049484,43.506138 157.944046,43.894192 
	C155.334229,44.375214 152.381119,43.622765 149.724808,42.875389 
	C148.816406,42.619804 148.356323,40.770836 147.691422,39.649864 
	C148.937164,39.319939 150.189713,38.695305 151.427155,38.723927 
	C153.718521,38.776928 156.001038,39.212082 158.287247,39.488075 
	C158.418762,38.802414 158.550278,38.116749 158.681808,37.431087 
	C156.640213,36.627766 154.246841,36.247593 152.644730,34.915657 
	C150.570663,33.191353 147.874161,30.800138 147.707047,28.529608 
	C147.456772,25.129444 150.542404,23.004232 154.103622,22.906487 
	C156.377762,22.844067 158.743546,23.194397 160.918381,23.853846 
	C161.809799,24.124138 162.306381,25.696579 162.982574,26.676668 
	C161.782700,27.159735 160.593674,28.005495 159.380417,28.041859 
	C157.505234,28.098061 155.613464,27.600925 153.728714,27.338455 
	C153.573151,27.968246 153.417587,28.598038 153.262009,29.227829 
	C155.891937,30.274578 158.521866,31.321327 161.474182,32.584641 
z"/>
<path fill="#026800" opacity="1.000000" stroke="none" 
	d="
M113.910431,25.337255 
	C113.331497,26.341129 113.007462,27.168962 112.424477,27.725554 
	C108.459297,31.511158 109.059288,35.139069 112.530777,38.885715 
	C113.488503,39.919350 114.017456,41.350273 114.795883,42.689663 
	C109.040520,46.210758 108.406929,39.462780 105.296455,38.288731 
	C101.833267,39.617985 101.179939,45.772549 95.330811,42.962605 
	C97.180382,39.867710 100.305580,36.895569 100.425285,33.806950 
	C100.546448,30.680807 97.693771,27.439409 96.143890,24.248417 
	C99.185272,23.051197 99.185272,23.051197 105.408051,28.491232 
	C106.424568,27.247128 107.298592,25.860132 108.474472,24.811695 
	C110.296272,23.187357 112.346664,21.304222 113.910431,25.337255 
z"/>
<path fill="#026B00" opacity="1.000000" stroke="none" 
	d="
M211.363037,42.697548 
	C207.392731,43.291992 203.617294,43.787506 199.867828,43.636940 
	C198.815826,43.594700 197.189316,41.772713 196.964111,40.556412 
	C196.486191,37.975311 196.727295,35.255733 196.725052,32.592888 
	C196.717346,23.488943 200.790466,20.533901 209.641174,23.311058 
	C210.408981,23.551983 210.948212,24.521345 211.593628,25.152342 
	C210.922653,25.745300 210.326370,26.698898 209.565231,26.856539 
	C207.954498,27.190144 206.227371,26.951010 204.608978,27.263060 
	C203.799759,27.419090 203.124588,28.270323 202.388794,28.807121 
	C203.128815,29.505512 203.752838,30.481352 204.631302,30.848551 
	C206.957916,31.821087 209.394577,32.530350 211.787445,33.344376 
	C209.479355,34.138351 207.132706,34.839161 204.881485,35.770615 
	C203.936417,36.161644 203.193314,37.040840 202.358383,37.698105 
	C203.272324,38.415680 204.097733,39.314827 205.118805,39.812725 
	C207.193253,40.824291 210.739594,38.089348 211.363037,42.697548 
z"/>
<path fill="#026800" opacity="1.000000" stroke="none" 
	d="
M171.252914,25.786324 
	C172.635605,29.345627 173.862167,32.559681 175.146439,35.924976 
	C180.176102,32.701168 177.505569,23.658152 184.777145,23.049767 
	C185.392822,23.405968 186.008499,23.762169 186.624176,24.118370 
	C184.112976,30.296955 181.820602,36.585857 178.827957,42.521717 
	C178.430756,43.309540 172.964340,43.071526 172.417358,41.998096 
	C169.526260,36.324409 167.458603,30.231129 165.105408,24.283342 
	C165.551056,23.822304 165.996704,23.361267 166.442352,22.900230 
	C167.993835,23.747177 169.545303,24.594126 171.252914,25.786324 
z"/>
<path fill="#026800" opacity="1.000000" stroke="none" 
	d="
M127.147293,40.495613 
	C126.176620,41.806229 125.237907,42.683010 124.299194,43.559792 
	C123.615753,42.552952 122.532448,41.617569 122.336929,40.523529 
	C121.991730,38.591972 122.251167,36.560249 122.142555,34.576748 
	C121.964317,31.321901 123.319359,27.216597 117.882812,26.711939 
	C117.474777,26.674063 116.718628,25.189039 116.918869,24.859385 
	C117.358292,24.135984 118.290199,23.285702 119.051353,23.255665 
	C122.853493,23.105625 126.669327,23.117523 130.470642,23.288319 
	C131.227066,23.322304 132.133377,24.179190 132.581573,24.898876 
	C132.764847,25.193155 131.962021,26.656662 131.527374,26.695822 
	C126.505539,27.148275 127.302551,30.859674 127.240494,34.097164 
	C127.202377,36.085033 127.198502,38.073555 127.147293,40.495613 
z"/>
<path fill="#026A00" opacity="1.000000" stroke="none" 
	d="
M225.060455,39.590446 
	C224.226318,41.229176 223.403702,42.425449 222.581085,43.621727 
	C221.756393,42.416142 220.473267,41.301342 220.212387,39.984097 
	C219.801620,37.909924 220.062302,35.699528 220.068039,33.546879 
	C220.076462,30.384504 220.549728,26.989832 215.772369,26.791977 
	C215.254501,26.770531 214.256546,25.502438 214.385315,25.208042 
	C214.719467,24.444103 215.535812,23.382223 216.198685,23.353977 
	C220.326767,23.178076 224.468735,23.169968 228.597733,23.326479 
	C229.294846,23.352905 230.078262,24.365345 230.554794,25.096292 
	C230.711838,25.337194 230.077957,26.559408 229.720047,26.601322 
	C223.104538,27.376081 225.571548,32.490593 225.106049,36.169498 
	C224.982224,37.148102 225.077362,38.154408 225.060455,39.590446 
z"/>
<path fill="#026A00" opacity="1.000000" stroke="none" 
	d="
M139.865753,27.353163 
	C140.722702,25.733192 141.565887,24.550858 142.409058,23.368523 
	C143.234146,24.577789 144.720795,25.765560 144.760910,27.000330 
	C144.883789,30.782038 144.778473,34.636719 144.153397,38.360886 
	C143.339188,43.211861 138.389130,45.707722 133.936356,43.769821 
	C133.049652,43.383923 132.163803,42.304981 131.929901,41.380550 
	C131.798584,40.861607 133.131866,39.317249 133.587524,39.402252 
	C141.143539,40.811710 139.467789,35.261585 139.814209,31.272348 
	C139.914322,30.119431 139.844101,28.951725 139.865753,27.353163 
z"/>
<path fill="#026900" opacity="1.000000" stroke="none" 
	d="
M193.121582,28.317295 
	C193.125412,32.075314 193.409439,35.409801 193.005646,38.658798 
	C192.790939,40.386257 191.384659,41.965618 190.516235,43.611828 
	C189.714508,42.048813 188.378693,40.537891 188.220108,38.912140 
	C187.869476,35.317516 187.867599,31.641174 188.221313,28.047163 
	C188.380417,26.430552 189.732132,24.931307 190.542694,23.378801 
	C191.400391,24.871941 192.258102,26.365080 193.121582,28.317295 
z"/>
<path fill="#000A00" opacity="1.000000" stroke="none" 
	d="
M9.009486,18.908924 
	C9.886554,10.661076 15.279585,5.350656 22.157804,5.546046 
	C28.629335,5.729883 34.501163,11.523837 34.863834,18.083559 
	C35.221382,24.550606 30.001270,30.178976 22.494591,31.420174 
	C13.081136,32.976650 8.882010,36.845711 8.643053,44.182945 
	C8.449698,50.119965 11.592299,55.078732 16.880083,57.180290 
	C21.769789,59.123638 28.036728,57.767174 31.653381,53.982647 
	C35.415653,50.045742 36.364059,43.647427 33.863045,38.625679 
	C33.076427,37.046253 32.122761,35.550018 31.245554,34.015709 
	C31.703753,33.622639 32.161949,33.229572 32.620148,32.836502 
	C34.107903,34.525299 36.060947,35.989918 37.001591,37.942310 
	C40.758453,45.740002 37.397877,55.228577 29.688076,59.405457 
	C22.220249,63.451237 12.879076,61.125507 8.069117,54.022858 
	C0.695082,43.133957 7.465837,29.888910 21.337580,28.066908 
	C28.084372,27.180740 30.969599,24.523596 31.259367,19.072977 
	C31.476887,14.981361 29.956301,11.314225 26.212643,10.214963 
	C23.212055,9.333892 18.733416,9.300790 16.537247,10.997144 
	C14.155100,12.837152 13.382812,17.039127 12.463414,20.364519 
	C12.070954,21.784016 13.085003,23.592379 13.459919,25.224037 
	C12.820745,25.456823 12.181572,25.689608 11.542398,25.922394 
	C10.699605,23.721739 9.856812,21.521084 9.009486,18.908924 
z"/>
<path fill="#000300" opacity="1.000000" stroke="none" 
	d="
M17.329119,37.028534 
	C21.770252,35.039867 25.889997,35.315502 28.388405,39.001045 
	C29.933359,41.280090 30.654678,44.877666 30.161320,47.595745 
	C29.463964,51.437737 26.159294,53.659721 22.109575,53.769756 
	C18.074764,53.879395 15.069880,51.861141 13.592580,48.096481 
	C11.856605,43.672630 13.127934,39.998371 17.329119,37.028534 
z"/>
<path fill="#000600" opacity="1.000000" stroke="none" 
	d="
M19.933374,23.140717 
	C18.742605,20.894051 17.033222,18.674562 17.310581,16.739899 
	C17.502352,15.402233 20.399015,13.668800 22.158567,13.583168 
	C23.610430,13.512511 25.803343,15.284509 26.551462,16.793465 
	C28.371836,20.465149 25.357218,23.409424 19.933374,23.140717 
z"/>
</svg>